<?xml version="1.0" encoding="utf-8"?>
<!-- Generator: Adobe Illustrator 24.1.2, SVG Export Plug-In . SVG Version: 6.00 Build 0)  -->
<svg version="1.1" id="Layer_1" xmlns="http://www.w3.org/2000/svg" xmlns:xlink="http://www.w3.org/1999/xlink" x="0px" y="0px"
	 viewBox="0 0 341 109.46" style="enable-background:new 0 0 341 109.46;" xml:space="preserve">
<style type="text/css">
	.st0{fill:#FFFFFF;}
	.st1{fill:url(#SVGID_1_);}
	.st2{fill:url(#SVGID_2_);}
</style>
<g>
	<path class="st0" d="M176.61,29.42c1.04,0,1.82,0.27,2.34,0.82s0.55,1.26,0.1,2.15l-20.96,45.15c-0.48,1.04-1,1.78-1.56,2.23
		c-0.56,0.44-1.27,0.67-2.13,0.67h-0.61c-0.84,0-1.52-0.22-2.05-0.67c-0.53-0.44-1.04-1.19-1.52-2.23l-21.04-45.15
		c-0.46-0.89-0.43-1.6,0.08-2.15c0.51-0.55,1.28-0.82,2.32-0.82h4.98c1.98,0,3.33,0.99,4.07,2.97l13.47,32.14l13.81-32.14
		c0.86-1.98,2.23-2.97,4.11-2.97H176.61z"/>
	<path class="st0" d="M232.66,77c0.41,0.96,0.42,1.71,0.04,2.24c-0.38,0.53-1.09,0.8-2.13,0.8h-6.09c-0.38,0-0.72-0.06-1.01-0.17
		c-0.29-0.11-0.52-0.21-0.68-0.3c-0.17-0.09-0.36-0.32-0.59-0.7s-0.37-0.63-0.42-0.76c-0.05-0.13-0.22-0.49-0.49-1.1l-2.7-6.54
		H195.5L192.72,77c-0.25,0.61-0.44,1.05-0.57,1.31c-0.13,0.27-0.31,0.56-0.55,0.89c-0.24,0.33-0.53,0.55-0.86,0.67
		c-0.33,0.12-0.73,0.17-1.22,0.17h-5.71c-1.02,0-1.71-0.27-2.09-0.8s-0.36-1.28,0.08-2.24l21.41-45.42
		c0.81-1.75,2.03-2.62,3.65-2.62h0.72c1.67,0,2.91,0.87,3.73,2.62L232.66,77z M198.77,62.89h16.62l-8.18-19.63L198.77,62.89z"/>
	<path class="st0" d="M249.11,80.05c-0.97,0-1.71-0.27-2.25-0.8c-0.53-0.53-0.8-1.28-0.8-2.24V32.46c0-0.96,0.27-1.71,0.8-2.24
		c0.53-0.53,1.28-0.8,2.25-0.8h4.49c1.98,0,2.97,1.02,2.97,3.04v38.87h19.17c0.99,0,1.75,0.25,2.3,0.74
		c0.54,0.49,0.82,1.22,0.82,2.19V77c0,0.96-0.28,1.71-0.84,2.24c-0.56,0.53-1.32,0.8-2.28,0.8H249.11z"/>
	<path class="st0" d="M313.5,81c-3.83,0-7.45-0.67-10.86-2.02c-3.41-1.34-6.33-3.17-8.77-5.48c-2.43-2.31-4.35-5.09-5.76-8.35
		C286.7,61.9,286,58.42,286,54.71c0-4.92,1.2-9.39,3.6-13.41c2.4-4.02,5.7-7.16,9.91-9.43c4.21-2.27,8.87-3.4,14-3.4
		c3.85,0,7.49,0.67,10.9,2c3.41,1.33,6.33,3.16,8.75,5.48c2.42,2.32,4.34,5.1,5.74,8.35c1.41,3.25,2.11,6.72,2.11,10.42
		c0,3.68-0.7,7.15-2.11,10.4c-1.41,3.26-3.32,6.05-5.74,8.37c-2.42,2.32-5.34,4.15-8.75,5.5C320.98,80.32,317.35,81,313.5,81z
		 M313.5,71.49c3.12,0,5.96-0.72,8.52-2.15s4.58-3.43,6.07-5.99c1.48-2.56,2.22-5.44,2.22-8.63c0-4.87-1.61-8.87-4.83-12.02
		c-3.22-3.14-7.22-4.72-11.98-4.72c-4.77,0-8.76,1.57-11.96,4.72c-3.21,3.15-4.81,7.15-4.81,12.02c0,4.84,1.61,8.85,4.83,12.02
		C304.77,69.9,308.75,71.49,313.5,71.49z"/>
</g>
<g>
	<linearGradient id="SVGID_1_" gradientUnits="userSpaceOnUse" x1="27.436" y1="0" x2="27.436" y2="109.4638">
		<stop  offset="0" style="stop-color:#1DAFE5"/>
		<stop  offset="1" style="stop-color:#5EC5D0"/>
	</linearGradient>
	<polygon class="st1" points="54.87,0 39.89,14.95 39.89,73.03 10.6,44.16 0,54.73 54.87,109.46 	"/>
	<linearGradient id="SVGID_2_" gradientUnits="userSpaceOnUse" x1="91.2407" y1="-1.222361e-09" x2="91.2407" y2="109.4638">
		<stop  offset="0" style="stop-color:#1DAFE5"/>
		<stop  offset="1" style="stop-color:#5EC5D0"/>
	</linearGradient>
	<polygon class="st2" points="63.8,0 78.79,14.95 78.79,73.03 108.08,44.16 118.68,54.73 63.8,109.46 	"/>
</g>
</svg>
